<mxfile host="app.diagrams.net" modified="2023-03-29T04:03:30.125Z" agent="Mozilla/5.0 (Macintosh; Intel Mac OS X 10_15_7) AppleWebKit/537.36 (KHTML, like Gecko) Chrome/111.0.0.0 Safari/537.36" etag="uS6b92SF3pN3PskzbzWP" version="21.1.1" type="github">
  <diagram name="Page-1" id="Eb4JMOHM5LO05hsW5jEW">
    <mxGraphModel dx="4513" dy="1515" grid="1" gridSize="10" guides="1" tooltips="1" connect="1" arrows="1" fold="1" page="1" pageScale="1" pageWidth="1169" pageHeight="827" math="0" shadow="0">
      <root>
        <mxCell id="0" />
        <mxCell id="1" parent="0" />
        <mxCell id="aHzTUcXBhPAwV65jqaBN-1" value="&lt;font style=&quot;font-size: 40px;&quot;&gt;Cinema&lt;/font&gt;" style="rounded=0;whiteSpace=wrap;html=1;" parent="1" vertex="1">
          <mxGeometry x="-1290" y="300" width="200" height="90" as="geometry" />
        </mxCell>
        <mxCell id="aHzTUcXBhPAwV65jqaBN-5" value="&lt;font style=&quot;font-size: 14px;&quot;&gt;Cinema_location&lt;/font&gt;" style="ellipse;whiteSpace=wrap;html=1;" parent="1" vertex="1">
          <mxGeometry x="-1060" y="150" width="120" height="80" as="geometry" />
        </mxCell>
        <mxCell id="aHzTUcXBhPAwV65jqaBN-6" value="&lt;font style=&quot;font-size: 18px;&quot;&gt;Cinema_name&lt;/font&gt;" style="ellipse;whiteSpace=wrap;html=1;" parent="1" vertex="1">
          <mxGeometry x="-1210" y="100" width="120" height="80" as="geometry" />
        </mxCell>
        <mxCell id="aHzTUcXBhPAwV65jqaBN-7" value="&lt;font style=&quot;font-size: 18px;&quot;&gt;Cinema_id&lt;/font&gt;" style="ellipse;whiteSpace=wrap;html=1;" parent="1" vertex="1">
          <mxGeometry x="-1360" y="110" width="120" height="80" as="geometry" />
        </mxCell>
        <mxCell id="aHzTUcXBhPAwV65jqaBN-8" value="&lt;font style=&quot;font-size: 14px;&quot;&gt;Cinema_promotion&lt;/font&gt;" style="ellipse;whiteSpace=wrap;html=1;" parent="1" vertex="1">
          <mxGeometry x="-1020" y="245" width="120" height="80" as="geometry" />
        </mxCell>
        <mxCell id="aHzTUcXBhPAwV65jqaBN-13" value="" style="endArrow=classic;html=1;rounded=0;" parent="1" source="aHzTUcXBhPAwV65jqaBN-1" edge="1">
          <mxGeometry width="50" height="50" relative="1" as="geometry">
            <mxPoint x="-1230" y="330" as="sourcePoint" />
            <mxPoint x="-1015.4556855893879" y="295.2704061767886" as="targetPoint" />
          </mxGeometry>
        </mxCell>
        <mxCell id="aHzTUcXBhPAwV65jqaBN-14" value="" style="endArrow=classic;html=1;rounded=0;exitX=0.938;exitY=0;exitDx=0;exitDy=0;exitPerimeter=0;entryX=0;entryY=1;entryDx=0;entryDy=0;" parent="1" source="aHzTUcXBhPAwV65jqaBN-1" target="aHzTUcXBhPAwV65jqaBN-5" edge="1">
          <mxGeometry width="50" height="50" relative="1" as="geometry">
            <mxPoint x="-1080" y="327" as="sourcePoint" />
            <mxPoint x="-1005" y="306" as="targetPoint" />
          </mxGeometry>
        </mxCell>
        <mxCell id="aHzTUcXBhPAwV65jqaBN-15" value="" style="endArrow=classic;html=1;rounded=0;entryX=0.413;entryY=1.025;entryDx=0;entryDy=0;entryPerimeter=0;exitX=0.583;exitY=-0.022;exitDx=0;exitDy=0;exitPerimeter=0;" parent="1" source="aHzTUcXBhPAwV65jqaBN-1" target="aHzTUcXBhPAwV65jqaBN-6" edge="1">
          <mxGeometry width="50" height="50" relative="1" as="geometry">
            <mxPoint x="-1230" y="330" as="sourcePoint" />
            <mxPoint x="-1180" y="280" as="targetPoint" />
          </mxGeometry>
        </mxCell>
        <mxCell id="aHzTUcXBhPAwV65jqaBN-16" value="" style="endArrow=classic;html=1;rounded=0;entryX=0.604;entryY=1.038;entryDx=0;entryDy=0;entryPerimeter=0;exitX=0.363;exitY=0.011;exitDx=0;exitDy=0;exitPerimeter=0;" parent="1" source="aHzTUcXBhPAwV65jqaBN-1" target="aHzTUcXBhPAwV65jqaBN-7" edge="1">
          <mxGeometry width="50" height="50" relative="1" as="geometry">
            <mxPoint x="-1230" y="330" as="sourcePoint" />
            <mxPoint x="-1180" y="280" as="targetPoint" />
          </mxGeometry>
        </mxCell>
        <mxCell id="aHzTUcXBhPAwV65jqaBN-26" style="edgeStyle=orthogonalEdgeStyle;rounded=0;orthogonalLoop=1;jettySize=auto;html=1;exitX=0;exitY=1;exitDx=0;exitDy=0;entryX=1.008;entryY=0.387;entryDx=0;entryDy=0;entryPerimeter=0;" parent="1" source="aHzTUcXBhPAwV65jqaBN-17" target="aHzTUcXBhPAwV65jqaBN-20" edge="1">
          <mxGeometry relative="1" as="geometry" />
        </mxCell>
        <mxCell id="aHzTUcXBhPAwV65jqaBN-27" style="edgeStyle=orthogonalEdgeStyle;rounded=0;orthogonalLoop=1;jettySize=auto;html=1;exitX=0.5;exitY=1;exitDx=0;exitDy=0;entryX=0.602;entryY=-0.019;entryDx=0;entryDy=0;entryPerimeter=0;" parent="1" source="aHzTUcXBhPAwV65jqaBN-17" target="aHzTUcXBhPAwV65jqaBN-19" edge="1">
          <mxGeometry relative="1" as="geometry">
            <Array as="points">
              <mxPoint x="-1748" y="365" />
              <mxPoint x="-1748" y="425" />
            </Array>
          </mxGeometry>
        </mxCell>
        <mxCell id="aHzTUcXBhPAwV65jqaBN-17" value="&lt;font style=&quot;font-size: 33px;&quot;&gt;User&lt;/font&gt;" style="whiteSpace=wrap;html=1;" parent="1" vertex="1">
          <mxGeometry x="-1800" y="305" width="120" height="60" as="geometry" />
        </mxCell>
        <mxCell id="aHzTUcXBhPAwV65jqaBN-18" value="&lt;font style=&quot;font-size: 18px;&quot;&gt;user_password&lt;/font&gt;" style="ellipse;whiteSpace=wrap;html=1;" parent="1" vertex="1">
          <mxGeometry x="-1640" y="455" width="120" height="80" as="geometry" />
        </mxCell>
        <mxCell id="aHzTUcXBhPAwV65jqaBN-19" value="&lt;font style=&quot;font-size: 18px;&quot;&gt;user_email&lt;/font&gt;" style="ellipse;whiteSpace=wrap;html=1;" parent="1" vertex="1">
          <mxGeometry x="-1820" y="485" width="120" height="80" as="geometry" />
        </mxCell>
        <mxCell id="aHzTUcXBhPAwV65jqaBN-20" value="&lt;font style=&quot;font-size: 18px;&quot;&gt;user_name&lt;/font&gt;" style="ellipse;whiteSpace=wrap;html=1;" parent="1" vertex="1">
          <mxGeometry x="-1980" y="405" width="120" height="80" as="geometry" />
        </mxCell>
        <mxCell id="aHzTUcXBhPAwV65jqaBN-21" value="&lt;font style=&quot;font-size: 18px;&quot;&gt;user_lastname&lt;/font&gt;" style="ellipse;whiteSpace=wrap;html=1;" parent="1" vertex="1">
          <mxGeometry x="-2030" y="285" width="120" height="80" as="geometry" />
        </mxCell>
        <mxCell id="aHzTUcXBhPAwV65jqaBN-22" value="&lt;font style=&quot;font-size: 24px;&quot;&gt;user_tel&lt;/font&gt;" style="ellipse;whiteSpace=wrap;html=1;" parent="1" vertex="1">
          <mxGeometry x="-1960" y="165" width="120" height="80" as="geometry" />
        </mxCell>
        <mxCell id="aHzTUcXBhPAwV65jqaBN-23" value="&lt;font style=&quot;font-size: 21px;&quot;&gt;user_id&lt;/font&gt;" style="ellipse;whiteSpace=wrap;html=1;" parent="1" vertex="1">
          <mxGeometry x="-1650" y="205" width="120" height="80" as="geometry" />
        </mxCell>
        <mxCell id="aHzTUcXBhPAwV65jqaBN-24" value="" style="endArrow=classic;html=1;rounded=0;exitX=0.25;exitY=0;exitDx=0;exitDy=0;entryX=1;entryY=1;entryDx=0;entryDy=0;" parent="1" source="aHzTUcXBhPAwV65jqaBN-17" target="aHzTUcXBhPAwV65jqaBN-22" edge="1">
          <mxGeometry width="50" height="50" relative="1" as="geometry">
            <mxPoint x="-1620" y="395" as="sourcePoint" />
            <mxPoint x="-1570" y="345" as="targetPoint" />
          </mxGeometry>
        </mxCell>
        <mxCell id="aHzTUcXBhPAwV65jqaBN-25" value="" style="endArrow=classic;html=1;rounded=0;exitX=0;exitY=0.25;exitDx=0;exitDy=0;entryX=1;entryY=0.5;entryDx=0;entryDy=0;" parent="1" source="aHzTUcXBhPAwV65jqaBN-17" target="aHzTUcXBhPAwV65jqaBN-21" edge="1">
          <mxGeometry width="50" height="50" relative="1" as="geometry">
            <mxPoint x="-1620" y="395" as="sourcePoint" />
            <mxPoint x="-1570" y="345" as="targetPoint" />
          </mxGeometry>
        </mxCell>
        <mxCell id="aHzTUcXBhPAwV65jqaBN-28" value="" style="endArrow=classic;html=1;rounded=0;exitX=1;exitY=1;exitDx=0;exitDy=0;entryX=0.25;entryY=0;entryDx=0;entryDy=0;entryPerimeter=0;" parent="1" source="aHzTUcXBhPAwV65jqaBN-17" target="aHzTUcXBhPAwV65jqaBN-18" edge="1">
          <mxGeometry width="50" height="50" relative="1" as="geometry">
            <mxPoint x="-1620" y="395" as="sourcePoint" />
            <mxPoint x="-1570" y="345" as="targetPoint" />
          </mxGeometry>
        </mxCell>
        <mxCell id="aHzTUcXBhPAwV65jqaBN-29" value="" style="endArrow=classic;html=1;rounded=0;exitX=0.75;exitY=0;exitDx=0;exitDy=0;entryX=-0.002;entryY=0.387;entryDx=0;entryDy=0;entryPerimeter=0;" parent="1" source="aHzTUcXBhPAwV65jqaBN-17" target="aHzTUcXBhPAwV65jqaBN-23" edge="1">
          <mxGeometry width="50" height="50" relative="1" as="geometry">
            <mxPoint x="-1620" y="395" as="sourcePoint" />
            <mxPoint x="-1570" y="345" as="targetPoint" />
          </mxGeometry>
        </mxCell>
        <mxCell id="aHzTUcXBhPAwV65jqaBN-39" value="&lt;font style=&quot;font-size: 33px;&quot;&gt;ticket&lt;/font&gt;" style="whiteSpace=wrap;html=1;" parent="1" vertex="1">
          <mxGeometry x="430" y="335" width="120" height="60" as="geometry" />
        </mxCell>
        <mxCell id="aHzTUcXBhPAwV65jqaBN-40" value="&lt;font style=&quot;font-size: 24px;&quot;&gt;ticket_id&lt;/font&gt;" style="ellipse;whiteSpace=wrap;html=1;" parent="1" vertex="1">
          <mxGeometry x="370" y="182" width="120" height="80" as="geometry" />
        </mxCell>
        <mxCell id="aHzTUcXBhPAwV65jqaBN-41" value="&lt;font style=&quot;font-size: 24px;&quot;&gt;ticket_price&lt;/font&gt;" style="ellipse;whiteSpace=wrap;html=1;" parent="1" vertex="1">
          <mxGeometry x="550" y="455" width="120" height="80" as="geometry" />
        </mxCell>
        <mxCell id="aHzTUcXBhPAwV65jqaBN-42" value="&lt;font style=&quot;font-size: 24px;&quot;&gt;ticket_type&lt;/font&gt;" style="ellipse;whiteSpace=wrap;html=1;" parent="1" vertex="1">
          <mxGeometry x="620" y="205" width="120" height="80" as="geometry" />
        </mxCell>
        <mxCell id="aHzTUcXBhPAwV65jqaBN-44" value="" style="endArrow=classic;html=1;rounded=0;entryX=0.66;entryY=0.993;entryDx=0;entryDy=0;exitX=0.5;exitY=0;exitDx=0;exitDy=0;entryPerimeter=0;" parent="1" source="aHzTUcXBhPAwV65jqaBN-39" target="aHzTUcXBhPAwV65jqaBN-40" edge="1">
          <mxGeometry width="50" height="50" relative="1" as="geometry">
            <mxPoint x="460" y="405" as="sourcePoint" />
            <mxPoint x="510" y="355" as="targetPoint" />
          </mxGeometry>
        </mxCell>
        <mxCell id="aHzTUcXBhPAwV65jqaBN-45" value="" style="endArrow=classic;html=1;rounded=0;entryX=0;entryY=0;entryDx=0;entryDy=0;exitX=0.75;exitY=1;exitDx=0;exitDy=0;" parent="1" source="aHzTUcXBhPAwV65jqaBN-39" target="aHzTUcXBhPAwV65jqaBN-41" edge="1">
          <mxGeometry width="50" height="50" relative="1" as="geometry">
            <mxPoint x="460" y="405" as="sourcePoint" />
            <mxPoint x="510" y="355" as="targetPoint" />
          </mxGeometry>
        </mxCell>
        <mxCell id="aHzTUcXBhPAwV65jqaBN-46" value="" style="endArrow=classic;html=1;rounded=0;entryX=-0.016;entryY=0.652;entryDx=0;entryDy=0;entryPerimeter=0;exitX=0.75;exitY=0;exitDx=0;exitDy=0;" parent="1" source="aHzTUcXBhPAwV65jqaBN-39" target="aHzTUcXBhPAwV65jqaBN-42" edge="1">
          <mxGeometry width="50" height="50" relative="1" as="geometry">
            <mxPoint x="460" y="405" as="sourcePoint" />
            <mxPoint x="510" y="355" as="targetPoint" />
          </mxGeometry>
        </mxCell>
        <mxCell id="aHzTUcXBhPAwV65jqaBN-48" value="&lt;font style=&quot;font-size: 27px;&quot;&gt;news&lt;/font&gt;" style="rounded=0;whiteSpace=wrap;html=1;" parent="1" vertex="1">
          <mxGeometry x="-1235" y="747" width="120" height="60" as="geometry" />
        </mxCell>
        <mxCell id="aHzTUcXBhPAwV65jqaBN-49" value="&lt;font style=&quot;font-size: 18px;&quot;&gt;new_movies&lt;/font&gt;" style="ellipse;whiteSpace=wrap;html=1;" parent="1" vertex="1">
          <mxGeometry x="-1235" y="597" width="120" height="80" as="geometry" />
        </mxCell>
        <mxCell id="aHzTUcXBhPAwV65jqaBN-50" value="&lt;font style=&quot;font-size: 18px;&quot;&gt;new_tittle&lt;/font&gt;" style="ellipse;whiteSpace=wrap;html=1;" parent="1" vertex="1">
          <mxGeometry x="-1365" y="847" width="120" height="80" as="geometry" />
        </mxCell>
        <mxCell id="aHzTUcXBhPAwV65jqaBN-54" value="&lt;font style=&quot;font-size: 24px;&quot;&gt;date_time&lt;/font&gt;" style="ellipse;whiteSpace=wrap;html=1;" parent="1" vertex="1">
          <mxGeometry x="-1135" y="857" width="120" height="80" as="geometry" />
        </mxCell>
        <mxCell id="aHzTUcXBhPAwV65jqaBN-55" value="" style="endArrow=classic;html=1;rounded=0;entryX=0.5;entryY=1;entryDx=0;entryDy=0;exitX=0.5;exitY=0;exitDx=0;exitDy=0;" parent="1" source="aHzTUcXBhPAwV65jqaBN-48" target="aHzTUcXBhPAwV65jqaBN-49" edge="1">
          <mxGeometry width="50" height="50" relative="1" as="geometry">
            <mxPoint x="-1365" y="797" as="sourcePoint" />
            <mxPoint x="-1315" y="747" as="targetPoint" />
          </mxGeometry>
        </mxCell>
        <mxCell id="aHzTUcXBhPAwV65jqaBN-56" value="" style="endArrow=classic;html=1;rounded=0;entryX=0.819;entryY=0.042;entryDx=0;entryDy=0;entryPerimeter=0;exitX=0.122;exitY=0.982;exitDx=0;exitDy=0;exitPerimeter=0;" parent="1" source="aHzTUcXBhPAwV65jqaBN-48" target="aHzTUcXBhPAwV65jqaBN-50" edge="1">
          <mxGeometry width="50" height="50" relative="1" as="geometry">
            <mxPoint x="-1225" y="817" as="sourcePoint" />
            <mxPoint x="-1315" y="747" as="targetPoint" />
          </mxGeometry>
        </mxCell>
        <mxCell id="aHzTUcXBhPAwV65jqaBN-57" value="" style="endArrow=classic;html=1;rounded=0;entryX=0.263;entryY=0.004;entryDx=0;entryDy=0;entryPerimeter=0;exitX=0.75;exitY=1;exitDx=0;exitDy=0;" parent="1" source="aHzTUcXBhPAwV65jqaBN-48" target="aHzTUcXBhPAwV65jqaBN-54" edge="1">
          <mxGeometry width="50" height="50" relative="1" as="geometry">
            <mxPoint x="-1365" y="797" as="sourcePoint" />
            <mxPoint x="-1305" y="737" as="targetPoint" />
          </mxGeometry>
        </mxCell>
        <mxCell id="aHzTUcXBhPAwV65jqaBN-58" value="&lt;font style=&quot;font-size: 27px;&quot;&gt;payment&lt;/font&gt;" style="whiteSpace=wrap;html=1;" parent="1" vertex="1">
          <mxGeometry x="390" y="1279" width="120" height="60" as="geometry" />
        </mxCell>
        <mxCell id="aHzTUcXBhPAwV65jqaBN-59" value="&lt;font style=&quot;font-size: 24px;&quot;&gt;mobile-banking&lt;/font&gt;" style="ellipse;whiteSpace=wrap;html=1;" parent="1" vertex="1">
          <mxGeometry x="550" y="1349" width="120" height="80" as="geometry" />
        </mxCell>
        <mxCell id="aHzTUcXBhPAwV65jqaBN-60" value="&lt;font style=&quot;font-size: 24px;&quot;&gt;cash&lt;/font&gt;" style="ellipse;whiteSpace=wrap;html=1;" parent="1" vertex="1">
          <mxGeometry x="380" y="1379" width="120" height="80" as="geometry" />
        </mxCell>
        <mxCell id="aHzTUcXBhPAwV65jqaBN-61" value="&lt;font style=&quot;font-size: 24px;&quot;&gt;scan&lt;/font&gt;" style="ellipse;whiteSpace=wrap;html=1;" parent="1" vertex="1">
          <mxGeometry x="380" y="1150" width="120" height="80" as="geometry" />
        </mxCell>
        <mxCell id="aHzTUcXBhPAwV65jqaBN-62" value="" style="endArrow=classic;html=1;rounded=0;entryX=0.5;entryY=1;entryDx=0;entryDy=0;exitX=0.396;exitY=-0.065;exitDx=0;exitDy=0;exitPerimeter=0;" parent="1" source="aHzTUcXBhPAwV65jqaBN-58" target="aHzTUcXBhPAwV65jqaBN-61" edge="1">
          <mxGeometry width="50" height="50" relative="1" as="geometry">
            <mxPoint x="410" y="1259" as="sourcePoint" />
            <mxPoint x="460" y="1209" as="targetPoint" />
          </mxGeometry>
        </mxCell>
        <mxCell id="aHzTUcXBhPAwV65jqaBN-63" value="" style="endArrow=classic;html=1;rounded=0;entryX=0.5;entryY=0;entryDx=0;entryDy=0;exitX=0.5;exitY=1;exitDx=0;exitDy=0;" parent="1" source="aHzTUcXBhPAwV65jqaBN-58" target="aHzTUcXBhPAwV65jqaBN-60" edge="1">
          <mxGeometry width="50" height="50" relative="1" as="geometry">
            <mxPoint x="400" y="1319" as="sourcePoint" />
            <mxPoint x="342" y="1331" as="targetPoint" />
          </mxGeometry>
        </mxCell>
        <mxCell id="aHzTUcXBhPAwV65jqaBN-64" value="" style="endArrow=classic;html=1;rounded=0;exitX=1;exitY=1;exitDx=0;exitDy=0;" parent="1" source="aHzTUcXBhPAwV65jqaBN-58" target="aHzTUcXBhPAwV65jqaBN-59" edge="1">
          <mxGeometry width="50" height="50" relative="1" as="geometry">
            <mxPoint x="410" y="1329" as="sourcePoint" />
            <mxPoint x="352" y="1341" as="targetPoint" />
          </mxGeometry>
        </mxCell>
        <mxCell id="aHzTUcXBhPAwV65jqaBN-65" value="&lt;font style=&quot;font-size: 31px;&quot;&gt;order&lt;/font&gt;" style="whiteSpace=wrap;html=1;" parent="1" vertex="1">
          <mxGeometry x="-180" y="335" width="120" height="60" as="geometry" />
        </mxCell>
        <mxCell id="aHzTUcXBhPAwV65jqaBN-66" value="&lt;font style=&quot;font-size: 24px;&quot;&gt;user_id&lt;/font&gt;" style="ellipse;whiteSpace=wrap;html=1;" parent="1" vertex="1">
          <mxGeometry x="-330" y="225" width="120" height="80" as="geometry" />
        </mxCell>
        <mxCell id="aHzTUcXBhPAwV65jqaBN-67" value="&lt;font style=&quot;font-size: 24px;&quot;&gt;order_id&lt;/font&gt;" style="ellipse;whiteSpace=wrap;html=1;" parent="1" vertex="1">
          <mxGeometry x="-330" y="425" width="120" height="80" as="geometry" />
        </mxCell>
        <mxCell id="aHzTUcXBhPAwV65jqaBN-68" value="&lt;font style=&quot;font-size: 24px;&quot;&gt;order_date&lt;/font&gt;" style="ellipse;whiteSpace=wrap;html=1;" parent="1" vertex="1">
          <mxGeometry x="-200" y="182" width="120" height="80" as="geometry" />
        </mxCell>
        <mxCell id="aHzTUcXBhPAwV65jqaBN-69" value="&lt;font style=&quot;font-size: 24px;&quot;&gt;ticket_id&lt;/font&gt;" style="ellipse;whiteSpace=wrap;html=1;" parent="1" vertex="1">
          <mxGeometry x="-80" y="425" width="120" height="80" as="geometry" />
        </mxCell>
        <mxCell id="aHzTUcXBhPAwV65jqaBN-70" value="&lt;font style=&quot;font-size: 24px;&quot;&gt;status&lt;/font&gt;" style="ellipse;whiteSpace=wrap;html=1;" parent="1" vertex="1">
          <mxGeometry x="-20" y="195" width="120" height="80" as="geometry" />
        </mxCell>
        <mxCell id="aHzTUcXBhPAwV65jqaBN-71" value="" style="endArrow=classic;html=1;rounded=0;entryX=1;entryY=1;entryDx=0;entryDy=0;exitX=0;exitY=0;exitDx=0;exitDy=0;" parent="1" source="aHzTUcXBhPAwV65jqaBN-65" target="aHzTUcXBhPAwV65jqaBN-66" edge="1">
          <mxGeometry width="50" height="50" relative="1" as="geometry">
            <mxPoint x="-320" y="305" as="sourcePoint" />
            <mxPoint x="-270" y="255" as="targetPoint" />
          </mxGeometry>
        </mxCell>
        <mxCell id="aHzTUcXBhPAwV65jqaBN-74" value="" style="endArrow=classic;html=1;rounded=0;entryX=1;entryY=0.5;entryDx=0;entryDy=0;exitX=0;exitY=1;exitDx=0;exitDy=0;" parent="1" source="aHzTUcXBhPAwV65jqaBN-65" target="aHzTUcXBhPAwV65jqaBN-67" edge="1">
          <mxGeometry width="50" height="50" relative="1" as="geometry">
            <mxPoint x="-150" y="365" as="sourcePoint" />
            <mxPoint x="-198" y="323" as="targetPoint" />
          </mxGeometry>
        </mxCell>
        <mxCell id="aHzTUcXBhPAwV65jqaBN-75" value="" style="endArrow=classic;html=1;rounded=0;entryX=0;entryY=0;entryDx=0;entryDy=0;exitX=0.5;exitY=1;exitDx=0;exitDy=0;" parent="1" source="aHzTUcXBhPAwV65jqaBN-65" target="aHzTUcXBhPAwV65jqaBN-69" edge="1">
          <mxGeometry width="50" height="50" relative="1" as="geometry">
            <mxPoint x="-320" y="305" as="sourcePoint" />
            <mxPoint x="-270" y="255" as="targetPoint" />
          </mxGeometry>
        </mxCell>
        <mxCell id="aHzTUcXBhPAwV65jqaBN-76" value="" style="endArrow=classic;html=1;rounded=0;entryX=0.5;entryY=1;entryDx=0;entryDy=0;exitX=0.34;exitY=-0.072;exitDx=0;exitDy=0;exitPerimeter=0;" parent="1" source="aHzTUcXBhPAwV65jqaBN-65" target="aHzTUcXBhPAwV65jqaBN-68" edge="1">
          <mxGeometry width="50" height="50" relative="1" as="geometry">
            <mxPoint x="-180" y="395" as="sourcePoint" />
            <mxPoint x="-130" y="345" as="targetPoint" />
          </mxGeometry>
        </mxCell>
        <mxCell id="aHzTUcXBhPAwV65jqaBN-77" value="" style="endArrow=classic;html=1;rounded=0;entryX=-0.007;entryY=0.6;entryDx=0;entryDy=0;entryPerimeter=0;exitX=0.75;exitY=0;exitDx=0;exitDy=0;" parent="1" source="aHzTUcXBhPAwV65jqaBN-65" target="aHzTUcXBhPAwV65jqaBN-70" edge="1">
          <mxGeometry width="50" height="50" relative="1" as="geometry">
            <mxPoint x="-180" y="395" as="sourcePoint" />
            <mxPoint x="-130" y="345" as="targetPoint" />
          </mxGeometry>
        </mxCell>
        <mxCell id="aHzTUcXBhPAwV65jqaBN-81" value="" style="edgeStyle=entityRelationEdgeStyle;fontSize=12;html=1;endArrow=ERmany;rounded=0;exitX=1;exitY=0.5;exitDx=0;exitDy=0;entryX=0;entryY=0.5;entryDx=0;entryDy=0;" parent="1" source="aHzTUcXBhPAwV65jqaBN-65" target="aHzTUcXBhPAwV65jqaBN-39" edge="1">
          <mxGeometry width="100" height="100" relative="1" as="geometry">
            <mxPoint x="140" y="455" as="sourcePoint" />
            <mxPoint x="240" y="355" as="targetPoint" />
          </mxGeometry>
        </mxCell>
        <mxCell id="aHzTUcXBhPAwV65jqaBN-84" value="" style="endArrow=classic;html=1;rounded=0;exitX=1;exitY=0.5;exitDx=0;exitDy=0;entryX=-0.007;entryY=0.35;entryDx=0;entryDy=0;entryPerimeter=0;" parent="1" source="aHzTUcXBhPAwV65jqaBN-17" target="aHzTUcXBhPAwV65jqaBN-1" edge="1">
          <mxGeometry width="50" height="50" relative="1" as="geometry">
            <mxPoint x="-1370" y="232" as="sourcePoint" />
            <mxPoint x="-1320" y="182" as="targetPoint" />
          </mxGeometry>
        </mxCell>
        <mxCell id="aHzTUcXBhPAwV65jqaBN-87" value="&lt;font style=&quot;font-size: 24px;&quot;&gt;buy&lt;/font&gt;" style="rhombus;whiteSpace=wrap;html=1;" parent="1" vertex="1">
          <mxGeometry x="-480" y="310" width="100" height="80" as="geometry" />
        </mxCell>
        <mxCell id="aHzTUcXBhPAwV65jqaBN-89" value="" style="endArrow=classic;html=1;rounded=0;exitX=1;exitY=0.5;exitDx=0;exitDy=0;entryX=0;entryY=0.25;entryDx=0;entryDy=0;" parent="1" source="aHzTUcXBhPAwV65jqaBN-87" target="aHzTUcXBhPAwV65jqaBN-65" edge="1">
          <mxGeometry width="50" height="50" relative="1" as="geometry">
            <mxPoint x="-260" y="402" as="sourcePoint" />
            <mxPoint x="-210" y="352" as="targetPoint" />
          </mxGeometry>
        </mxCell>
        <mxCell id="aHzTUcXBhPAwV65jqaBN-90" value="" style="endArrow=classic;html=1;rounded=0;exitX=1;exitY=0.5;exitDx=0;exitDy=0;entryX=1;entryY=0.5;entryDx=0;entryDy=0;" parent="1" source="aHzTUcXBhPAwV65jqaBN-39" edge="1">
          <mxGeometry width="50" height="50" relative="1" as="geometry">
            <mxPoint x="420" y="1122" as="sourcePoint" />
            <mxPoint x="510" y="1312" as="targetPoint" />
            <Array as="points">
              <mxPoint x="720" y="365" />
              <mxPoint x="710" y="1312" />
            </Array>
          </mxGeometry>
        </mxCell>
        <mxCell id="aHzTUcXBhPAwV65jqaBN-92" value="&lt;font style=&quot;font-size: 36px;&quot;&gt;has&lt;/font&gt;" style="rhombus;whiteSpace=wrap;html=1;" parent="1" vertex="1">
          <mxGeometry x="160" y="325" width="130" height="80" as="geometry" />
        </mxCell>
        <mxCell id="aHzTUcXBhPAwV65jqaBN-93" value="&lt;font style=&quot;font-size: 36px;&quot;&gt;admin&lt;/font&gt;" style="whiteSpace=wrap;html=1;" parent="1" vertex="1">
          <mxGeometry x="-710" y="857" width="120" height="60" as="geometry" />
        </mxCell>
        <mxCell id="aHzTUcXBhPAwV65jqaBN-94" value="&lt;font style=&quot;font-size: 14px;&quot;&gt;admin_lastname&lt;/font&gt;" style="ellipse;whiteSpace=wrap;html=1;" parent="1" vertex="1">
          <mxGeometry x="-870" y="947" width="120" height="80" as="geometry" />
        </mxCell>
        <mxCell id="aHzTUcXBhPAwV65jqaBN-95" value="&lt;font style=&quot;font-size: 18px;&quot;&gt;admin_email&lt;/font&gt;" style="ellipse;whiteSpace=wrap;html=1;" parent="1" vertex="1">
          <mxGeometry x="-690" y="987" width="120" height="80" as="geometry" />
        </mxCell>
        <mxCell id="aHzTUcXBhPAwV65jqaBN-96" value="&lt;font style=&quot;font-size: 18px;&quot;&gt;admin_name&lt;/font&gt;" style="ellipse;whiteSpace=wrap;html=1;" parent="1" vertex="1">
          <mxGeometry x="-940" y="827" width="120" height="80" as="geometry" />
        </mxCell>
        <mxCell id="aHzTUcXBhPAwV65jqaBN-97" value="&lt;font style=&quot;font-size: 24px;&quot;&gt;admin_tel&lt;/font&gt;" style="ellipse;whiteSpace=wrap;html=1;" parent="1" vertex="1">
          <mxGeometry x="-530" y="937" width="120" height="80" as="geometry" />
        </mxCell>
        <mxCell id="aHzTUcXBhPAwV65jqaBN-98" value="&lt;font style=&quot;font-size: 24px;&quot;&gt;admin_id&lt;/font&gt;" style="ellipse;whiteSpace=wrap;html=1;" parent="1" vertex="1">
          <mxGeometry x="-870" y="690" width="120" height="80" as="geometry" />
        </mxCell>
        <mxCell id="aHzTUcXBhPAwV65jqaBN-99" value="" style="endArrow=classic;html=1;rounded=0;entryX=0.674;entryY=0.965;entryDx=0;entryDy=0;exitX=0;exitY=0;exitDx=0;exitDy=0;entryPerimeter=0;" parent="1" source="aHzTUcXBhPAwV65jqaBN-93" target="aHzTUcXBhPAwV65jqaBN-98" edge="1">
          <mxGeometry width="50" height="50" relative="1" as="geometry">
            <mxPoint x="-530" y="827" as="sourcePoint" />
            <mxPoint x="-480" y="777" as="targetPoint" />
          </mxGeometry>
        </mxCell>
        <mxCell id="aHzTUcXBhPAwV65jqaBN-100" value="" style="endArrow=classic;html=1;rounded=0;exitX=1;exitY=0.615;exitDx=0;exitDy=0;exitPerimeter=0;" parent="1" source="aHzTUcXBhPAwV65jqaBN-93" target="aHzTUcXBhPAwV65jqaBN-97" edge="1">
          <mxGeometry width="50" height="50" relative="1" as="geometry">
            <mxPoint x="-580" y="882" as="sourcePoint" />
            <mxPoint x="-470" y="877" as="targetPoint" />
          </mxGeometry>
        </mxCell>
        <mxCell id="aHzTUcXBhPAwV65jqaBN-101" value="" style="endArrow=classic;html=1;rounded=0;entryX=0.5;entryY=0;entryDx=0;entryDy=0;exitX=0.659;exitY=1.012;exitDx=0;exitDy=0;exitPerimeter=0;" parent="1" source="aHzTUcXBhPAwV65jqaBN-93" target="aHzTUcXBhPAwV65jqaBN-95" edge="1">
          <mxGeometry width="50" height="50" relative="1" as="geometry">
            <mxPoint x="-530" y="827" as="sourcePoint" />
            <mxPoint x="-480" y="777" as="targetPoint" />
          </mxGeometry>
        </mxCell>
        <mxCell id="aHzTUcXBhPAwV65jqaBN-102" value="" style="endArrow=classic;html=1;rounded=0;exitX=0.088;exitY=0.996;exitDx=0;exitDy=0;exitPerimeter=0;" parent="1" source="aHzTUcXBhPAwV65jqaBN-93" target="aHzTUcXBhPAwV65jqaBN-94" edge="1">
          <mxGeometry width="50" height="50" relative="1" as="geometry">
            <mxPoint x="-530" y="827" as="sourcePoint" />
            <mxPoint x="-480" y="777" as="targetPoint" />
          </mxGeometry>
        </mxCell>
        <mxCell id="aHzTUcXBhPAwV65jqaBN-103" value="" style="endArrow=classic;html=1;rounded=0;entryX=1;entryY=0.5;entryDx=0;entryDy=0;exitX=0;exitY=0.5;exitDx=0;exitDy=0;" parent="1" source="aHzTUcXBhPAwV65jqaBN-93" target="aHzTUcXBhPAwV65jqaBN-96" edge="1">
          <mxGeometry width="50" height="50" relative="1" as="geometry">
            <mxPoint x="-530" y="827" as="sourcePoint" />
            <mxPoint x="-480" y="777" as="targetPoint" />
          </mxGeometry>
        </mxCell>
        <mxCell id="aHzTUcXBhPAwV65jqaBN-104" value="" style="endArrow=classic;html=1;rounded=0;entryX=1;entryY=0.5;entryDx=0;entryDy=0;exitX=0.25;exitY=0;exitDx=0;exitDy=0;" parent="1" source="aHzTUcXBhPAwV65jqaBN-93" target="aHzTUcXBhPAwV65jqaBN-48" edge="1">
          <mxGeometry width="50" height="50" relative="1" as="geometry">
            <mxPoint x="-410" y="690" as="sourcePoint" />
            <mxPoint x="-360" y="640" as="targetPoint" />
            <Array as="points">
              <mxPoint x="-680" y="670" />
              <mxPoint x="-680" y="590" />
              <mxPoint x="-960" y="590" />
              <mxPoint x="-960" y="777" />
            </Array>
          </mxGeometry>
        </mxCell>
        <mxCell id="aHzTUcXBhPAwV65jqaBN-105" value="" style="endArrow=classic;html=1;rounded=0;exitX=0.5;exitY=0;exitDx=0;exitDy=0;entryX=0.25;entryY=1;entryDx=0;entryDy=0;" parent="1" source="aHzTUcXBhPAwV65jqaBN-93" target="aHzTUcXBhPAwV65jqaBN-65" edge="1">
          <mxGeometry width="50" height="50" relative="1" as="geometry">
            <mxPoint x="-80" y="670" as="sourcePoint" />
            <mxPoint x="-30" y="620" as="targetPoint" />
            <Array as="points">
              <mxPoint x="-150" y="510" />
            </Array>
          </mxGeometry>
        </mxCell>
        <mxCell id="aHzTUcXBhPAwV65jqaBN-106" value="&lt;font style=&quot;font-size: 24px;&quot;&gt;update&lt;/font&gt;" style="rhombus;whiteSpace=wrap;html=1;" parent="1" vertex="1">
          <mxGeometry x="-735" y="590" width="110" height="80" as="geometry" />
        </mxCell>
        <mxCell id="aHzTUcXBhPAwV65jqaBN-107" value="&lt;font style=&quot;font-size: 24px;&quot;&gt;update&lt;/font&gt;" style="rhombus;whiteSpace=wrap;html=1;" parent="1" vertex="1">
          <mxGeometry x="-430" y="630" width="110" height="80" as="geometry" />
        </mxCell>
        <mxCell id="wA279mt4gQ892ym-PbaM-1" value="&lt;font style=&quot;font-size: 30px;&quot;&gt;discount&lt;/font&gt;" style="whiteSpace=wrap;html=1;" vertex="1" parent="1">
          <mxGeometry x="100" y="809" width="120" height="60" as="geometry" />
        </mxCell>
        <mxCell id="wA279mt4gQ892ym-PbaM-2" value="&lt;font style=&quot;font-size: 18px;&quot;&gt;end_date&lt;/font&gt;" style="ellipse;whiteSpace=wrap;html=1;" vertex="1" parent="1">
          <mxGeometry x="-30" y="689" width="120" height="80" as="geometry" />
        </mxCell>
        <mxCell id="wA279mt4gQ892ym-PbaM-3" value="&lt;font style=&quot;font-size: 24px;&quot;&gt;start_date&lt;/font&gt;" style="ellipse;whiteSpace=wrap;html=1;" vertex="1" parent="1">
          <mxGeometry x="130" y="679" width="120" height="80" as="geometry" />
        </mxCell>
        <mxCell id="wA279mt4gQ892ym-PbaM-4" value="&lt;font style=&quot;font-size: 18px;&quot;&gt;coupon_type&lt;/font&gt;" style="ellipse;whiteSpace=wrap;html=1;" vertex="1" parent="1">
          <mxGeometry x="10" y="898" width="120" height="80" as="geometry" />
        </mxCell>
        <mxCell id="wA279mt4gQ892ym-PbaM-5" value="&lt;font style=&quot;font-size: 24px;&quot;&gt;coupon_id&lt;/font&gt;" style="ellipse;whiteSpace=wrap;html=1;" vertex="1" parent="1">
          <mxGeometry x="190" y="898" width="120" height="80" as="geometry" />
        </mxCell>
        <mxCell id="wA279mt4gQ892ym-PbaM-6" value="" style="endArrow=classic;html=1;rounded=0;entryX=0.5;entryY=1;entryDx=0;entryDy=0;exitX=0.618;exitY=-0.011;exitDx=0;exitDy=0;exitPerimeter=0;" edge="1" parent="1" source="wA279mt4gQ892ym-PbaM-1" target="wA279mt4gQ892ym-PbaM-3">
          <mxGeometry width="50" height="50" relative="1" as="geometry">
            <mxPoint x="240" y="879" as="sourcePoint" />
            <mxPoint x="290" y="829" as="targetPoint" />
          </mxGeometry>
        </mxCell>
        <mxCell id="wA279mt4gQ892ym-PbaM-7" value="" style="endArrow=classic;html=1;rounded=0;entryX=1;entryY=1;entryDx=0;entryDy=0;exitX=0.25;exitY=0;exitDx=0;exitDy=0;" edge="1" parent="1" source="wA279mt4gQ892ym-PbaM-1" target="wA279mt4gQ892ym-PbaM-2">
          <mxGeometry width="50" height="50" relative="1" as="geometry">
            <mxPoint x="240" y="879" as="sourcePoint" />
            <mxPoint x="290" y="829" as="targetPoint" />
          </mxGeometry>
        </mxCell>
        <mxCell id="wA279mt4gQ892ym-PbaM-8" value="" style="endArrow=classic;html=1;rounded=0;entryX=0.852;entryY=0.083;entryDx=0;entryDy=0;exitX=0.25;exitY=1;exitDx=0;exitDy=0;entryPerimeter=0;" edge="1" parent="1" source="wA279mt4gQ892ym-PbaM-1" target="wA279mt4gQ892ym-PbaM-4">
          <mxGeometry width="50" height="50" relative="1" as="geometry">
            <mxPoint x="240" y="879" as="sourcePoint" />
            <mxPoint x="290" y="829" as="targetPoint" />
          </mxGeometry>
        </mxCell>
        <mxCell id="wA279mt4gQ892ym-PbaM-9" value="" style="endArrow=classic;html=1;rounded=0;entryX=0.252;entryY=0.043;entryDx=0;entryDy=0;exitX=0.888;exitY=1.007;exitDx=0;exitDy=0;exitPerimeter=0;entryPerimeter=0;" edge="1" parent="1" source="wA279mt4gQ892ym-PbaM-1" target="wA279mt4gQ892ym-PbaM-5">
          <mxGeometry width="50" height="50" relative="1" as="geometry">
            <mxPoint x="240" y="879" as="sourcePoint" />
            <mxPoint x="290" y="829" as="targetPoint" />
          </mxGeometry>
        </mxCell>
        <mxCell id="wA279mt4gQ892ym-PbaM-10" value="" style="endArrow=classic;html=1;rounded=0;exitX=1;exitY=0.5;exitDx=0;exitDy=0;entryX=0;entryY=0.5;entryDx=0;entryDy=0;" edge="1" parent="1" source="wA279mt4gQ892ym-PbaM-11" target="wA279mt4gQ892ym-PbaM-1">
          <mxGeometry width="50" height="50" relative="1" as="geometry">
            <mxPoint x="-320" y="920" as="sourcePoint" />
            <mxPoint x="-270" y="870" as="targetPoint" />
          </mxGeometry>
        </mxCell>
        <mxCell id="wA279mt4gQ892ym-PbaM-12" value="" style="endArrow=classic;html=1;rounded=0;exitX=1;exitY=0.25;exitDx=0;exitDy=0;entryX=0;entryY=0.5;entryDx=0;entryDy=0;" edge="1" parent="1" source="aHzTUcXBhPAwV65jqaBN-93" target="wA279mt4gQ892ym-PbaM-11">
          <mxGeometry width="50" height="50" relative="1" as="geometry">
            <mxPoint x="-590" y="872" as="sourcePoint" />
            <mxPoint x="70" y="820" as="targetPoint" />
          </mxGeometry>
        </mxCell>
        <mxCell id="wA279mt4gQ892ym-PbaM-11" value="&lt;font style=&quot;font-size: 24px;&quot;&gt;update&lt;/font&gt;" style="rhombus;whiteSpace=wrap;html=1;" vertex="1" parent="1">
          <mxGeometry x="-310" y="799" width="110" height="80" as="geometry" />
        </mxCell>
        <mxCell id="wA279mt4gQ892ym-PbaM-14" value="&lt;font style=&quot;font-size: 36px;&quot;&gt;movie&lt;/font&gt;" style="rounded=0;whiteSpace=wrap;html=1;" vertex="1" parent="1">
          <mxGeometry x="-810" y="320" width="120" height="60" as="geometry" />
        </mxCell>
        <mxCell id="wA279mt4gQ892ym-PbaM-15" value="movie_time" style="ellipse;whiteSpace=wrap;html=1;" vertex="1" parent="1">
          <mxGeometry x="-860" y="165" width="120" height="80" as="geometry" />
        </mxCell>
        <mxCell id="wA279mt4gQ892ym-PbaM-16" value="movie_id" style="ellipse;whiteSpace=wrap;html=1;" vertex="1" parent="1">
          <mxGeometry x="-680" y="182" width="120" height="80" as="geometry" />
        </mxCell>
        <mxCell id="wA279mt4gQ892ym-PbaM-17" value="movie_name" style="ellipse;whiteSpace=wrap;html=1;" vertex="1" parent="1">
          <mxGeometry x="-660" y="390" width="120" height="80" as="geometry" />
        </mxCell>
        <mxCell id="wA279mt4gQ892ym-PbaM-18" value="movie_showtime" style="ellipse;whiteSpace=wrap;html=1;" vertex="1" parent="1">
          <mxGeometry x="-855" y="440" width="120" height="80" as="geometry" />
        </mxCell>
        <mxCell id="wA279mt4gQ892ym-PbaM-19" value="" style="endArrow=classic;html=1;rounded=0;exitX=1.006;exitY=0.567;exitDx=0;exitDy=0;entryX=0;entryY=0.5;entryDx=0;entryDy=0;exitPerimeter=0;" edge="1" parent="1" source="aHzTUcXBhPAwV65jqaBN-1" target="wA279mt4gQ892ym-PbaM-14">
          <mxGeometry width="50" height="50" relative="1" as="geometry">
            <mxPoint x="-450" y="790" as="sourcePoint" />
            <mxPoint x="-400" y="740" as="targetPoint" />
          </mxGeometry>
        </mxCell>
        <mxCell id="wA279mt4gQ892ym-PbaM-20" value="" style="endArrow=classic;html=1;rounded=0;entryX=0;entryY=0.5;entryDx=0;entryDy=0;exitX=1;exitY=0.5;exitDx=0;exitDy=0;" edge="1" parent="1" source="wA279mt4gQ892ym-PbaM-14" target="aHzTUcXBhPAwV65jqaBN-87">
          <mxGeometry width="50" height="50" relative="1" as="geometry">
            <mxPoint x="-730" y="520" as="sourcePoint" />
            <mxPoint x="-680" y="470" as="targetPoint" />
          </mxGeometry>
        </mxCell>
        <mxCell id="wA279mt4gQ892ym-PbaM-21" value="" style="endArrow=classic;html=1;rounded=0;exitX=0.25;exitY=0;exitDx=0;exitDy=0;entryX=0.5;entryY=1;entryDx=0;entryDy=0;" edge="1" parent="1" source="wA279mt4gQ892ym-PbaM-14" target="wA279mt4gQ892ym-PbaM-15">
          <mxGeometry width="50" height="50" relative="1" as="geometry">
            <mxPoint x="-730" y="440" as="sourcePoint" />
            <mxPoint x="-680" y="390" as="targetPoint" />
          </mxGeometry>
        </mxCell>
        <mxCell id="wA279mt4gQ892ym-PbaM-22" value="" style="endArrow=classic;html=1;rounded=0;entryX=0;entryY=1;entryDx=0;entryDy=0;exitX=0.75;exitY=0;exitDx=0;exitDy=0;" edge="1" parent="1" source="wA279mt4gQ892ym-PbaM-14" target="wA279mt4gQ892ym-PbaM-16">
          <mxGeometry width="50" height="50" relative="1" as="geometry">
            <mxPoint x="-730" y="440" as="sourcePoint" />
            <mxPoint x="-680" y="390" as="targetPoint" />
          </mxGeometry>
        </mxCell>
        <mxCell id="wA279mt4gQ892ym-PbaM-23" value="" style="endArrow=classic;html=1;rounded=0;entryX=-0.002;entryY=0.326;entryDx=0;entryDy=0;entryPerimeter=0;exitX=0.713;exitY=1.018;exitDx=0;exitDy=0;exitPerimeter=0;" edge="1" parent="1" source="wA279mt4gQ892ym-PbaM-14" target="wA279mt4gQ892ym-PbaM-17">
          <mxGeometry width="50" height="50" relative="1" as="geometry">
            <mxPoint x="-730" y="440" as="sourcePoint" />
            <mxPoint x="-680" y="390" as="targetPoint" />
          </mxGeometry>
        </mxCell>
        <mxCell id="wA279mt4gQ892ym-PbaM-24" value="" style="endArrow=classic;html=1;rounded=0;exitX=0.25;exitY=1;exitDx=0;exitDy=0;entryX=0.546;entryY=-0.031;entryDx=0;entryDy=0;entryPerimeter=0;" edge="1" parent="1" source="wA279mt4gQ892ym-PbaM-14" target="wA279mt4gQ892ym-PbaM-18">
          <mxGeometry width="50" height="50" relative="1" as="geometry">
            <mxPoint x="-730" y="440" as="sourcePoint" />
            <mxPoint x="-680" y="390" as="targetPoint" />
          </mxGeometry>
        </mxCell>
      </root>
    </mxGraphModel>
  </diagram>
</mxfile>
